<mxfile host="Electron" modified="2023-11-13T21:22:09.268Z" agent="Mozilla/5.0 (Windows NT 10.0; Win64; x64) AppleWebKit/537.36 (KHTML, like Gecko) draw.io/22.0.2 Chrome/114.0.5735.289 Electron/25.8.4 Safari/537.36" etag="sW6fdXRfM-6LK-UxV9n5" version="22.0.2" type="device">
  <diagram name="Page-1" id="CDByZ5SjNdk4U9MzOubc">
    <mxGraphModel dx="1102" dy="811" grid="1" gridSize="10" guides="1" tooltips="1" connect="1" arrows="1" fold="1" page="1" pageScale="1" pageWidth="1100" pageHeight="850" math="0" shadow="0">
      <root>
        <mxCell id="0" />
        <mxCell id="1" parent="0" />
        <mxCell id="AXdBnoCkxD2jGG990rTK-1" value="" style="edgeStyle=orthogonalEdgeStyle;rounded=0;orthogonalLoop=1;jettySize=auto;html=1;" edge="1" parent="1" source="AXdBnoCkxD2jGG990rTK-2" target="AXdBnoCkxD2jGG990rTK-4">
          <mxGeometry relative="1" as="geometry" />
        </mxCell>
        <mxCell id="AXdBnoCkxD2jGG990rTK-2" value="&lt;p style=&quot;line-height: 90%;&quot;&gt;&lt;font style=&quot;font-size: 10px;&quot;&gt;Start&lt;/font&gt;&lt;/p&gt;" style="ellipse;whiteSpace=wrap;html=1;aspect=fixed;" vertex="1" parent="1">
          <mxGeometry x="80" y="120" width="40" height="40" as="geometry" />
        </mxCell>
        <mxCell id="AXdBnoCkxD2jGG990rTK-3" value="" style="edgeStyle=orthogonalEdgeStyle;rounded=0;orthogonalLoop=1;jettySize=auto;html=1;" edge="1" parent="1" source="AXdBnoCkxD2jGG990rTK-4" target="AXdBnoCkxD2jGG990rTK-6">
          <mxGeometry relative="1" as="geometry" />
        </mxCell>
        <mxCell id="AXdBnoCkxD2jGG990rTK-4" value="&lt;font style=&quot;font-size: 10px;&quot;&gt;Select Nav Menu&lt;/font&gt;" style="rounded=1;whiteSpace=wrap;html=1;" vertex="1" parent="1">
          <mxGeometry x="200" y="120" width="120" height="40" as="geometry" />
        </mxCell>
        <mxCell id="AXdBnoCkxD2jGG990rTK-5" value="" style="edgeStyle=orthogonalEdgeStyle;rounded=0;orthogonalLoop=1;jettySize=auto;html=1;" edge="1" parent="1" source="AXdBnoCkxD2jGG990rTK-6" target="AXdBnoCkxD2jGG990rTK-8">
          <mxGeometry relative="1" as="geometry" />
        </mxCell>
        <mxCell id="AXdBnoCkxD2jGG990rTK-6" value="&lt;font style=&quot;font-size: 10px;&quot;&gt;Click Events&amp;nbsp;Link&lt;/font&gt;" style="rounded=1;whiteSpace=wrap;html=1;" vertex="1" parent="1">
          <mxGeometry x="200" y="240" width="120" height="40" as="geometry" />
        </mxCell>
        <mxCell id="AXdBnoCkxD2jGG990rTK-7" value="" style="edgeStyle=orthogonalEdgeStyle;rounded=0;orthogonalLoop=1;jettySize=auto;html=1;" edge="1" parent="1" source="AXdBnoCkxD2jGG990rTK-8" target="AXdBnoCkxD2jGG990rTK-10">
          <mxGeometry relative="1" as="geometry">
            <mxPoint x="260" y="480" as="targetPoint" />
          </mxGeometry>
        </mxCell>
        <mxCell id="AXdBnoCkxD2jGG990rTK-8" value="&lt;font style=&quot;font-size: 10px;&quot;&gt;Click Individual&lt;br&gt;Event Link&lt;/font&gt;" style="rounded=1;whiteSpace=wrap;html=1;" vertex="1" parent="1">
          <mxGeometry x="200" y="360" width="120" height="40" as="geometry" />
        </mxCell>
        <mxCell id="AXdBnoCkxD2jGG990rTK-19" value="" style="edgeStyle=orthogonalEdgeStyle;rounded=0;orthogonalLoop=1;jettySize=auto;html=1;" edge="1" parent="1" source="AXdBnoCkxD2jGG990rTK-10" target="AXdBnoCkxD2jGG990rTK-14">
          <mxGeometry relative="1" as="geometry" />
        </mxCell>
        <mxCell id="AXdBnoCkxD2jGG990rTK-10" value="&lt;font style=&quot;font-size: 10px;&quot;&gt;Click Edit Button&lt;/font&gt;" style="rounded=1;whiteSpace=wrap;html=1;" vertex="1" parent="1">
          <mxGeometry x="200" y="480" width="120" height="40" as="geometry" />
        </mxCell>
        <mxCell id="AXdBnoCkxD2jGG990rTK-12" value="&lt;font style=&quot;font-size: 10px;&quot;&gt;Finish&lt;/font&gt;" style="ellipse;whiteSpace=wrap;html=1;aspect=fixed;fontSize=7;" vertex="1" parent="1">
          <mxGeometry x="920" y="600" width="40" height="40" as="geometry" />
        </mxCell>
        <mxCell id="AXdBnoCkxD2jGG990rTK-20" style="edgeStyle=orthogonalEdgeStyle;rounded=0;orthogonalLoop=1;jettySize=auto;html=1;exitX=1;exitY=0.5;exitDx=0;exitDy=0;" edge="1" parent="1" source="AXdBnoCkxD2jGG990rTK-14" target="AXdBnoCkxD2jGG990rTK-16">
          <mxGeometry relative="1" as="geometry" />
        </mxCell>
        <mxCell id="AXdBnoCkxD2jGG990rTK-14" value="&lt;font style=&quot;font-size: 10px;&quot;&gt;Proceed to&lt;br&gt;Event Info Form&lt;br&gt;&lt;/font&gt;" style="rounded=1;whiteSpace=wrap;html=1;" vertex="1" parent="1">
          <mxGeometry x="200" y="600" width="120" height="40" as="geometry" />
        </mxCell>
        <mxCell id="AXdBnoCkxD2jGG990rTK-21" style="edgeStyle=orthogonalEdgeStyle;rounded=0;orthogonalLoop=1;jettySize=auto;html=1;exitX=1;exitY=0.5;exitDx=0;exitDy=0;" edge="1" parent="1" source="AXdBnoCkxD2jGG990rTK-16" target="AXdBnoCkxD2jGG990rTK-18">
          <mxGeometry relative="1" as="geometry" />
        </mxCell>
        <mxCell id="AXdBnoCkxD2jGG990rTK-16" value="&lt;font style=&quot;font-size: 10px;&quot;&gt;Complete&lt;br&gt;Event Info Form&lt;br&gt;&lt;/font&gt;" style="rounded=1;whiteSpace=wrap;html=1;" vertex="1" parent="1">
          <mxGeometry x="440" y="600" width="120" height="40" as="geometry" />
        </mxCell>
        <mxCell id="AXdBnoCkxD2jGG990rTK-22" style="edgeStyle=orthogonalEdgeStyle;rounded=0;orthogonalLoop=1;jettySize=auto;html=1;exitX=1;exitY=0.5;exitDx=0;exitDy=0;" edge="1" parent="1" source="AXdBnoCkxD2jGG990rTK-18" target="AXdBnoCkxD2jGG990rTK-12">
          <mxGeometry relative="1" as="geometry" />
        </mxCell>
        <mxCell id="AXdBnoCkxD2jGG990rTK-18" value="&lt;font style=&quot;font-size: 10px;&quot;&gt;Proceed to&lt;br&gt;Event View&lt;br&gt;&lt;/font&gt;" style="rounded=1;whiteSpace=wrap;html=1;" vertex="1" parent="1">
          <mxGeometry x="680" y="600" width="120" height="40" as="geometry" />
        </mxCell>
      </root>
    </mxGraphModel>
  </diagram>
</mxfile>
